<svg xmlns="http://www.w3.org/2000/svg" width="40" height="39.992"><g data-name="Group 17028"><g data-name="Group 17027"><path data-name="Path 18248" d="M34.466 3.117h-.536a.781.781 0 000 1.563h.536a.781.781 0 000-1.563z" fill="#922d3e"/></g></g><g data-name="Group 17030"><g data-name="Group 17029"><path data-name="Path 18249" d="M38.257 3.117h-.536a.781.781 0 000 1.563h.536a.781.781 0 000-1.563z" fill="#922d3e"/></g></g><g data-name="Group 17032"><g data-name="Group 17031"><path data-name="Path 18250" d="M36.093 4.745a.781.781 0 00-.781.781v.537a.781.781 0 101.563 0v-.536a.781.781 0 00-.782-.782z" fill="#922d3e"/></g></g><g data-name="Group 17034"><g data-name="Group 17033"><path data-name="Path 18251" d="M36.093.954a.781.781 0 00-.781.781v.536a.781.781 0 101.563 0v-.536a.781.781 0 00-.782-.781z" fill="#922d3e"/></g></g><g data-name="Group 17036"><g data-name="Group 17035"><path data-name="Path 18252" d="M1.317 12.749H.781a.781.781 0 100 1.563h.536a.781.781 0 100-1.562z" fill="#922d3e"/></g></g><g data-name="Group 17038"><g data-name="Group 17037"><path data-name="Path 18253" d="M5.108 12.749H4.57a.781.781 0 100 1.563h.536a.781.781 0 000-1.562z" fill="#922d3e"/></g></g><g data-name="Group 17040"><g data-name="Group 17039"><path data-name="Path 18254" d="M2.944 14.376a.781.781 0 00-.781.781v.536a.781.781 0 001.563 0v-.536a.781.781 0 00-.782-.781z" fill="#922d3e"/></g></g><g data-name="Group 17042"><g data-name="Group 17041"><path data-name="Path 18255" d="M2.944 10.586a.781.781 0 00-.781.781v.536a.781.781 0 001.563 0v-.536a.781.781 0 00-.782-.781z" fill="#922d3e"/></g></g><g data-name="Group 17044"><g data-name="Group 17043"><path data-name="Path 18256" d="M39.176 28.53a2.824 2.824 0 00-3.668-.3l-5.161 3.71a2.709 2.709 0 00-.729-1.414 2.43 2.43 0 00-.14-.129v-9.711h1.729a.781.781 0 00.781-.781v-8.877a3.316 3.316 0 00-3.313-3.311h-.717a.424.424 0 01-.289-.114 3.561 3.561 0 001.476-2.882V3.565a3.566 3.566 0 00-7.132 0v1.156a3.561 3.561 0 001.471 2.882.424.424 0 01-.289.114h-1.241a.781.781 0 000 1.563h1.241a1.984 1.984 0 00.494-.062l1.111 1.628v3.048a.781.781 0 001.563 0v-3.048l1.109-1.628a1.986 1.986 0 00.493.062h.717a1.751 1.751 0 011.75 1.749v8.095h-.948v-6.583a.781.781 0 10-1.563 0v5.422h-4.68v-5.422a.781.781 0 00-1.563 0v17.11a1.562 1.562 0 01-.368-.274l-3.384-3.4v-5.176h1.667a.781.781 0 00.781-.781v-8.99a3.316 3.316 0 00-3.314-3.313h-.66a.423.423 0 01-.289-.114 3.561 3.561 0 001.477-2.882V3.565a3.566 3.566 0 00-7.132 0v1.156a3.561 3.561 0 001.472 2.882.423.423 0 01-.289.114h-.655a3.316 3.316 0 00-3.313 3.313v8.99a.781.781 0 00.781.781h1.668v3.03H7.812v-1.495a.781.781 0 00-.781-.781H.781a.781.781 0 00-.781.781v16.875a.781.781 0 00.781.781h6.25a.781.781 0 00.781-.781v-1.127l1.4.552a19.312 19.312 0 007.126 1.357h10.776a7.707 7.707 0 004.767-1.66l.739-.586a.781.781 0 10-.97-1.225l-.739.586a6.138 6.138 0 01-3.8 1.322H16.336a17.756 17.756 0 01-6.552-1.247l-1.972-.779v-11.01h6.025a3.1 3.1 0 012.208.914l4.155 4.175a3.1 3.1 0 002.21.915h5.55a.776.776 0 01.552.229 1.276 1.276 0 01.234 1.324.755.755 0 01-.177.269l-.02.017a.48.48 0 01-.327.113H19.59a2.776 2.776 0 01-1.517-.45l-2.509-1.632-.009-.006a.781.781 0 10-.85 1.311l2.516 1.637a4.334 4.334 0 002.369.7h8.632a2.04 2.04 0 001.338-.484l6.861-4.932a1.274 1.274 0 011.534 2.033l-1.136.9a.781.781 0 10.97 1.225l1.136-.9a2.836 2.836 0 00.251-4.222zM25.579 1.563a2.007 2.007 0 011.841 1.211l-.52-.307a.781.781 0 00-.994.172 2.273 2.273 0 01-1.746.815h-.577a2.006 2.006 0 011.996-1.891zm0 7.655l-.65-.954.019-.035a3.521 3.521 0 001.261 0l.02.035zm2-4.5a2 2 0 01-3.985.295h.558a3.832 3.832 0 002.468-.9l.959.563zM6.25 38.43H1.563V23.117H6.25zm7.772-31.707a2.006 2.006 0 01-1.982-1.707h.56a3.831 3.831 0 002.468-.9l.959.563v.042a2 2 0 01-2.005 2.002zm.65 1.541l-.649.953-.65-.954.019-.035a3.52 3.52 0 001.26 0zm-.65-6.7a2.007 2.007 0 011.841 1.212l-.523-.307a.781.781 0 00-.994.172 2.273 2.273 0 01-1.746.81h-.577a2.006 2.006 0 011.999-1.888zm-.781 22.267h-1.559v-4.306h1.559zm3.121-3.811v4.549a4.63 4.63 0 00-1.562-.638v-4.406h1.559zm.781-8.26a.781.781 0 00-.781.781v5.422h-4.68v-5.422a.781.781 0 00-1.563 0v6.7h-.885V11.03a1.752 1.752 0 011.75-1.75h.655a1.983 1.983 0 00.493-.062l1.109 1.628v3.049a.781.781 0 101.563 0v-3.044l1.109-1.628a1.985 1.985 0 00.493.062h.656a1.752 1.752 0 011.75 1.75v8.209h-.886v-6.7a.781.781 0 00-.783-.785zM24.8 29.836h-1.561V19.525H24.8zm3.121 0H26.36V19.525h1.559z" fill="#922d3e"/></g></g><g data-name="Group 17046"><g data-name="Group 17045"><path data-name="Path 18257" d="M35.506 34.463a.781.781 0 00-1.1-.127l-.015.012a.781.781 0 10.97 1.225l.015-.012a.781.781 0 00.13-1.098z" fill="#922d3e"/></g></g><g data-name="Group 17048"><g data-name="Group 17047"><path data-name="Path 18258" d="M4.459 35.387a.782.782 0 10.229.553.786.786 0 00-.229-.553z" fill="#922d3e"/></g></g><g data-name="Group 17050"><g data-name="Group 17049"><path data-name="Path 18259" d="M3.906 25.756a.781.781 0 00-.781.777v6.326a.781.781 0 001.563 0v-6.326a.781.781 0 00-.782-.777z" fill="#922d3e"/></g></g></svg>