<svg xmlns="http://www.w3.org/2000/svg" width="16" height="15.219"><g data-name="Group 17057" fill="#922d3e"><path data-name="Path 18263" d="M16 6.446a1.348 1.348 0 00-.155-.6 1.448 1.448 0 00-.439-.487l-1.931-1.5V2.298a.313.313 0 00-.312-.312H11.07L8.926.319a1.507 1.507 0 00-1.853 0L4.93 1.986H2.839a.313.313 0 00-.312.313v1.558l-1.934 1.5A1.445 1.445 0 000 6.472v7.409a1.341 1.341 0 001.339 1.339h5.035a.313.313 0 000-.625H1.339a.715.715 0 01-.714-.714V6.472a.622.622 0 01.005-.078l7.2 4.645 5.729 3.553h-4.44a.313.313 0 100 .625h5.542A1.341 1.341 0 0016 13.88V6.472v-.026zm-.975-.591l.007.005h.006l-1.563 1.008v-2.22zM7.457.807a.883.883 0 011.085 0l1.509 1.174h-4.1zM.979 5.852l1.547-1.2v2.225L.964 5.865l.016-.013zm2.172-3.245h9.7v4.665L8 10.407 3.151 7.276zM15.375 13.88a.722.722 0 01-.633.709L8.585 10.77l6.787-4.378v7.489z"/><path data-name="Path 18264" d="M8.068 14.788a.312.312 0 10-.115.379.315.315 0 00.115-.379z"/><path data-name="Path 18265" d="M5.574 4.985h4.911a.313.313 0 000-.625H5.571a.313.313 0 000 .625z"/><path data-name="Path 18266" d="M10.801 6.696a.313.313 0 00-.312-.312H5.575a.313.313 0 000 .625h4.91a.312.312 0 00.316-.313z"/></g></svg>