<svg xmlns="http://www.w3.org/2000/svg" width="40" height="39.999"><g data-name="Group 17006"><g data-name="Group 17005"><path data-name="Path 18237" d="M21.002 3.153a16.9 16.9 0 00-5.619.611.781.781 0 10.426 1.5 15.345 15.345 0 015.1-.555.781.781 0 00.092-1.56z" fill="#922d3e"/></g></g><g data-name="Group 17008"><g data-name="Group 17007"><path data-name="Path 18238" d="M24.617 3.764l-.061-.017a.781.781 0 10-.418 1.505l.052.015a.781.781 0 10.427-1.5z" fill="#922d3e"/></g></g><g data-name="Group 17010"><g data-name="Group 17009"><path data-name="Path 18239" d="M36.176 15.181a.782.782 0 10-1.5.445 15.319 15.319 0 01-.03 8.846.781.781 0 101.495.455 16.876 16.876 0 00.035-9.746z" fill="#922d3e"/></g></g><g data-name="Group 17012"><g data-name="Group 17011"><path data-name="Path 18240" d="M25.322 35.212a.782.782 0 00-.971-.528 15.288 15.288 0 01-6.137.524.781.781 0 10-.181 1.552 17.1 17.1 0 001.981.116 16.832 16.832 0 004.78-.694.781.781 0 00.528-.97z" fill="#922d3e"/></g></g><g data-name="Group 17014"><g data-name="Group 17013"><path data-name="Path 18241" d="M15.737 34.709l-.042-.012a.781.781 0 10-.438 1.5l.05.015a.781.781 0 00.43-1.5z" fill="#922d3e"/></g></g><g data-name="Group 17016"><g data-name="Group 17015"><path data-name="Path 18242" d="M5.466 24.831a15.468 15.468 0 01-.047-9.516.781.781 0 10-1.488-.477 17.042 17.042 0 00.052 10.484.781.781 0 001.483-.491z" fill="#922d3e"/></g></g><g data-name="Group 17018"><g data-name="Group 17017"><path data-name="Path 18243" d="M39.163 35.122l-.609-.609a2.839 2.839 0 00-1.266-.736l.323-.47a2.924 2.924 0 00-.342-3.725l-3.414-3.414a.781.781 0 00-1.1 1.1l3.414 3.414a1.362 1.362 0 01.159 1.734l-1.071 1.557a2.869 2.869 0 00-1.277 1.282l-1.573 1.082a1.361 1.361 0 01-1.734-.159l-3.414-3.414a.781.781 0 00-1.1 1.1l3.414 3.414a2.924 2.924 0 003.725.341l.491-.338a2.841 2.841 0 00.734 1.261l.609.609a2.857 2.857 0 004.04-4.04zm-1.1 2.935a1.294 1.294 0 01-1.83 0l-.609-.609a1.294 1.294 0 111.83-1.83l.609.609a1.294 1.294 0 010 1.83z" fill="#922d3e"/></g></g><g data-name="Group 17020"><g data-name="Group 17019"><path data-name="Path 18244" d="M13.829 32.75a.781.781 0 00-1.1 0l-3.418 3.414a1.361 1.361 0 01-1.734.159L6.02 35.252a2.868 2.868 0 00-1.282-1.277l-1.082-1.573a1.362 1.362 0 01.159-1.734l3.414-3.414a.781.781 0 00-1.1-1.1l-3.414 3.414a2.924 2.924 0 00-.341 3.725l.338.491a2.839 2.839 0 00-1.261.734l-.609.609a2.857 2.857 0 104.04 4.04l.609-.609a2.84 2.84 0 00.736-1.266l.47.323a2.924 2.924 0 003.725-.341l3.414-3.414a.781.781 0 00-.007-1.11zm-9.449 4.7l-.609.609a1.294 1.294 0 11-1.83-1.83l.609-.609a1.294 1.294 0 111.83 1.83z" fill="#922d3e"/></g></g><g data-name="Group 17022"><g data-name="Group 17021"><path data-name="Path 18245" d="M13.849 6.122l-3.414-3.414a2.924 2.924 0 00-3.725-.341l-.493.339a2.838 2.838 0 00-.733-1.262L4.876.835a2.857 2.857 0 00-4.04 4.04l.609.609a2.839 2.839 0 001.267.734l-.328.475a2.924 2.924 0 00.341 3.725l3.414 3.414a.781.781 0 001.1-1.1L3.834 9.31a1.362 1.362 0 01-.159-1.734l1.072-1.56a2.845 2.845 0 001.275-1.279l1.574-1.083a1.362 1.362 0 011.734.159l3.414 3.414a.781.781 0 001.1-1.1zM4.384 4.379a1.3 1.3 0 01-1.83 0l-.609-.609a1.294 1.294 0 011.83-1.83l.609.609a1.3 1.3 0 010 1.83z" fill="#922d3e"/></g></g><g data-name="Group 17024"><g data-name="Group 17023"><path data-name="Path 18246" d="M39.163.835a2.86 2.86 0 00-4.04 0l-.609.609a2.838 2.838 0 00-.734 1.267l-.471-.324a2.924 2.924 0 00-3.725.341L26.17 6.142a.781.781 0 001.105 1.1l3.416-3.409a1.362 1.362 0 011.734-.159l1.559 1.073a2.846 2.846 0 001.279 1.274l1.082 1.572a1.362 1.362 0 01-.159 1.734l-3.414 3.414a.781.781 0 101.1 1.1l3.414-3.414a2.924 2.924 0 00.341-3.725l-.339-.493a2.838 2.838 0 001.262-.733l.609-.609a2.86 2.86 0 00.004-4.032zm-1.1 2.935l-.609.609a1.294 1.294 0 01-1.83-1.83l.609-.609a1.294 1.294 0 011.83 1.83z" fill="#922d3e"/></g></g><g data-name="Group 17026"><g data-name="Group 17025"><path data-name="Path 18247" d="M34.855 30.326l-6.477-6.477a.782.782 0 00-.1-.08 9.093 9.093 0 000-7.549.783.783 0 00.093-.078l6.477-6.477a.781.781 0 00-1.1-1.1L32.53 9.783l-2.312-2.312 1.218-1.218a.781.781 0 00-1.1-1.1l-6.477 6.477a.776.776 0 00-.08.1 9.093 9.093 0 00-7.549 0 .785.785 0 00-.078-.093L9.675 5.16a.781.781 0 00-1.1 1.1l1.211 1.212-2.312 2.312-1.218-1.218a.781.781 0 00-1.1 1.1l6.477 6.477a.782.782 0 00.1.08 9.093 9.093 0 000 7.549.791.791 0 00-.093.078l-6.489 6.482a.781.781 0 101.1 1.1l1.218-1.218 2.317 2.316-1.218 1.218a.781.781 0 101.1 1.1l6.477-6.476a.784.784 0 00.08-.1 9.093 9.093 0 007.549 0 .784.784 0 00.078.093l6.477 6.477a.781.781 0 001.1-1.1l-1.218-1.218 2.312-2.312 1.218 1.218a.781.781 0 101.1-1.1zm-4.031-20.04l.6.6-3.938 3.936q-.243-.351-.518-.677zM29.11 8.572l.609.609-3.859 3.859q-.332-.28-.69-.528zm-3.029 6.974a7.5 7.5 0 011.419 3.671h-5a.435.435 0 01-.435-.435v-.264a.435.435 0 01.435-.435 1.47 1.47 0 001.469-1.469 1.07 1.07 0 011.069-1.069zm-7.1-.9a.235.235 0 01.234.234v.083a.235.235 0 01-.229.229h-1.837a1.778 1.778 0 000 3.555h.229a.234.234 0 010 .469h-4.876a7.521 7.521 0 012.2-4.575zm-8.1-6.064l3.939 3.939q-.351.243-.677.518l-3.857-3.864zm-2.307 2.31l.609-.609 3.859 3.859q-.28.332-.528.69zm.6 18.822l-.6-.6 3.939-3.939q.243.351.518.677zm1.714 1.714l-.609-.609 3.859-3.859q.332.28.69.528zm6.208-4.468a7.585 7.585 0 01-3.793-3.493h8.971a.137.137 0 01.137.137v.179a.317.317 0 01-.316.316h-.446a1.347 1.347 0 00-1.346 1.346.138.138 0 01-.138.138h-1.4a1.7 1.7 0 00-1.666 1.374zm2.9.581a7.552 7.552 0 01-1.37-.125v-.132a.138.138 0 01.138-.138h1.4a1.7 1.7 0 001.687-1.484h.243a1.881 1.881 0 001.879-1.879v-.179a1.7 1.7 0 00-1.7-1.7h-9.568a7.493 7.493 0 01-.2-1.121h4.876a1.8 1.8 0 100-3.594h-.229a.215.215 0 010-.43h1.834a1.8 1.8 0 001.8-1.8v-.083a1.8 1.8 0 00-1.8-1.8h-1.978a7.526 7.526 0 017.583.943 2.636 2.636 0 00-2.181 2.5 2 2 0 00-1.9 2v.264a2 2 0 002 2h5a7.55 7.55 0 01-7.509 6.754zm9.115 3.882l-3.939-3.939q.351-.243.677-.518l3.859 3.859zm1.7-1.7l-3.859-3.859q.28-.332.528-.69l3.94 3.94z" fill="#922d3e"/></g></g></svg>