<svg xmlns="http://www.w3.org/2000/svg" width="40" height="40"><g data-name="Group 16985"><g data-name="Group 16984"><path data-name="Path 18228" d="M8.58 38.766l-1.176-1.657a.781.781 0 10-1.274.9l1.176 1.657a.781.781 0 001.274-.9z" fill="#922d3e"/></g></g><g data-name="Group 16987"><g data-name="Group 16986"><path data-name="Path 18229" d="M17.599 39.058l-1.28-6.1a11.506 11.506 0 00-4.866-7.223L8.72 23.897a2.749 2.749 0 00-3.485.356v-9.414a2.615 2.615 0 00-4.252-2.04 2.6 2.6 0 00-.984 2.04v12.113a7.568 7.568 0 001.4 4.4l1.4 1.967a.781.781 0 101.274-.9l-1.395-1.967a6.013 6.013 0 01-1.116-3.5V14.839a1.053 1.053 0 012.106 0v9.611a5.459 5.459 0 001.408 3.665c.039.047.079.093.121.138l1.7 1.808.8.856.008.008 1.206 1.283a.781.781 0 101.139-1.07l-1.973-2.1-1.791-1.906-.013-.015a1.318 1.318 0 01.025-1.728 1.181 1.181 0 011.538-.2l2.733 1.838a9.95 9.95 0 014.209 6.247l1.28 6.1a.781.781 0 101.529-.321z" fill="#922d3e"/></g></g><g data-name="Group 16989"><g data-name="Group 16988"><path data-name="Path 18230" d="M5.788 34.833l-.006-.01a.781.781 0 10-1.272.908v.007a.781.781 0 101.272-.907z" fill="#922d3e"/></g></g><g data-name="Group 16991"><g data-name="Group 16990"><path data-name="Path 18231" d="M39.021 12.799a2.615 2.615 0 00-4.252 2.04v9.414a2.749 2.749 0 00-3.485-.356l-2.733 1.838a11.5 11.5 0 00-4.866 7.223l-1.28 6.1a.781.781 0 101.529.321l1.28-6.1a9.951 9.951 0 014.209-6.247l2.733-1.838a1.181 1.181 0 011.538.2 1.318 1.318 0 01.027 1.726l-.015.017-3.765 4.006a.781.781 0 101.139 1.07c.011-.011 3.2-3.406 3.722-3.955.042-.045.082-.091.121-.138a5.459 5.459 0 001.408-3.665v-9.616a1.053 1.053 0 012.106 0v12.113a6.013 6.013 0 01-1.116 3.5l-5.902 8.317a.781.781 0 101.274.9l5.9-8.315a7.567 7.567 0 001.4-4.4V14.839a2.6 2.6 0 00-.972-2.04z" fill="#922d3e"/></g></g><g data-name="Group 16993"><g data-name="Group 16992"><path data-name="Path 18232" d="M29.895 14.974l-1.39-.332v-.249a3.494 3.494 0 001.5-2.865V9.719a3.494 3.494 0 00-5.765-2.658 4.562 4.562 0 00-8.454.006 3.494 3.494 0 00-5.78 2.652v1.807a3.494 3.494 0 001.5 2.865v.249l-1.39.332a3.66 3.66 0 00-2.819 3.571v1.459a.781.781 0 00.781.781h3.59c-.006.095-.009.19-.009.286v2.809a.781.781 0 00.781.781h4.7a.781.781 0 000-1.562h-.807v-1.612a.781.781 0 00-1.562 0v1.614H13.22v-2.028a3.235 3.235 0 012.486-3.152l2.144-.514 1.435 3.264a.781.781 0 00.715.467.781.781 0 00.715-.467l1.433-3.259 2.137.511a3.234 3.234 0 012.491 3.156v2.022h-1.545v-1.614a.781.781 0 00-1.562 0v1.614h-.885a.781.781 0 000 1.563h4.774a.781.781 0 00.781-.781v-2.808c0-.1 0-.193-.01-.288h3.6a.781.781 0 00.781-.781v-1.459a3.66 3.66 0 00-2.815-3.571zm-3.389-7.188a1.937 1.937 0 011.93 1.806H27.35a5.7 5.7 0 01-2.619-.638 1.937 1.937 0 011.775-1.168zm-1.934 3.627v-.814a7.257 7.257 0 002.775.552h1.09v.372a1.934 1.934 0 11-3.868 0zm-7.566-2.631a3 3 0 015.964-.477l-1.315-.773a.781.781 0 00-.995.172 3.366 3.366 0 01-2.586 1.207h-1.068zm-3.5-1a1.937 1.937 0 011.776 1.168 5.7 5.7 0 01-2.619.638h-1.087a1.937 1.937 0 011.93-1.802zm-1.934 3.369h1.09a7.258 7.258 0 002.778-.553v.925a1.934 1.934 0 01-3.868 0zm3.774 5.241a4.791 4.791 0 00-3.321 2.827H8.859v-.678a2.1 2.1 0 011.619-2.052l1.99-.475a.781.781 0 00.6-.76v-.263a3.391 3.391 0 00.874 0v.263a.783.783 0 00.635.769l1.165.279zm2.179-1.213a3.665 3.665 0 00-.626-.211l-1.4-.334v-.243a3.526 3.526 0 00.677-.619 4.6 4.6 0 001.344 1.347zm3.393 1.148l-.914 2.079-.916-2.085v-.558a4.579 4.579 0 001.831 0zm-.908-2.031a3 3 0 01-3-3v-.825h1.068a4.922 4.922 0 003.32-1.282l1.611.947v1.275a3 3 0 01-3.003 2.889zm2.47.886v-.053a4.6 4.6 0 001.355-1.35 3.525 3.525 0 00.671.612v.243l-1.4.334a3.68 3.68 0 00-.626.218zm8.671 4.037h-3.177a4.79 4.79 0 00-3.322-2.825l-.392-.094 1.172-.281a.782.782 0 00.638-.769v-.258a3.391 3.391 0 00.874 0v.263a.781.781 0 00.6.76l1.99.475a2.1 2.1 0 011.619 2.052z" fill="#922d3e"/></g></g><g data-name="Group 16995"><g data-name="Group 16994"><path data-name="Path 18233" d="M20.552 23.329a.782.782 0 10.229.553.788.788 0 00-.229-.553z" fill="#922d3e"/></g></g><g data-name="Group 16997"><g data-name="Group 16996"><path data-name="Path 18234" d="M19.999 0a.781.781 0 00-.781.781V1.95a.781.781 0 001.563 0V.781A.781.781 0 0019.999 0z" fill="#922d3e"/></g></g><g data-name="Group 16999"><g data-name="Group 16998"><path data-name="Path 18235" d="M17.122 2.548l-.82-.819a.781.781 0 10-1.1 1.105l.82.819a.781.781 0 101.1-1.105z" fill="#922d3e"/></g></g><g data-name="Group 17001"><g data-name="Group 17000"><path data-name="Path 18236" d="M24.782 1.752a.781.781 0 00-1.1 0l-.813.814a.781.781 0 101.105 1.1l.813-.814a.781.781 0 00-.005-1.1z" fill="#922d3e"/></g></g></svg>