<svg data-name="twitter (1)" xmlns="http://www.w3.org/2000/svg" width="16.978" height="16.978"><path data-name="Path 18275" d="M8.126 13.734a11.284 11.284 0 01-2.609-.328 11.42 11.42 0 01-1.021-.302.365.365 0 01-.292-.307.331.331 0 01.273-.359 7.032 7.032 0 002.867-1 2.466 2.466 0 01-1.965-.77.4.4 0 01-.08-.333.592.592 0 01.216-.333 2.413 2.413 0 01-1.508-1.533.4.4 0 01.038-.338c.035-.059.112-.185.48-.3a2.8 2.8 0 01-.6-1.974c.046-.656.263-.753.334-.785a.359.359 0 01.366.043A5 5 0 007.29 6.128a4.179 4.179 0 001.352-.092A2.83 2.83 0 019.5 3.872a2.376 2.376 0 012.229-.545 2.3 2.3 0 011.524 1.24l1.026.05a.332.332 0 01.178.6l-.52.375.484.356a.332.332 0 01-.2.6h-.592c.244 2.42-.2 4.341-1.28 5.571a5.353 5.353 0 01-4.223 1.624zm-2.262-.928a10.419 10.419 0 002.262.265 4.726 4.726 0 003.725-1.4c1.275-1.447 1.29-3.748 1.077-5.423a.332.332 0 01.284-.37l-.039-.029a.332.332 0 010-.536l.121-.088-.277-.013a.332.332 0 01-.287-.2 1.738 1.738 0 00-2.785-.667 2.148 2.148 0 00-.63 1.81.379.379 0 01-.205.391 3.865 3.865 0 01-1.87.232 5.7 5.7 0 01-2.66-.889 1.993 1.993 0 00.828 1.833.332.332 0 01-.127.609 4.13 4.13 0 00-.565.126 1.835 1.835 0 001.665 1.04.332.332 0 01.132.624 4.05 4.05 0 00-.456.283 2.679 2.679 0 002.034.306.332.332 0 01.368.427c-.037.118-.392 1.036-2.6 1.665zm0 0" fill="#922d3e"/><path data-name="Path 18276" d="M2.487 10.363a.331.331 0 11.325-.267.334.334 0 01-.325.267zm0 0" fill="#922d3e"/><path data-name="Path 18277" d="M15.021 0H1.956A1.959 1.959 0 000 1.956v13.065a1.959 1.959 0 001.956 1.956h13.065a1.959 1.959 0 001.956-1.956V1.956A1.959 1.959 0 0015.021 0zm1.293 15.021a1.3 1.3 0 01-1.293 1.293H2.819v-4.789a.332.332 0 10-.663 0v4.789h-.2a1.3 1.3 0 01-1.293-1.293V1.956A1.3 1.3 0 011.956.663h.2v7.876a.332.332 0 10.663 0V.663h12.2a1.3 1.3 0 011.293 1.293zm0 0" fill="#922d3e"/></svg>