<svg xmlns="http://www.w3.org/2000/svg" width="40" height="39.99"><g data-name="Group 17052"><g data-name="Group 17051"><path data-name="Path 18260" d="M35.02 29.678a.781.781 0 10.229.552.788.788 0 00-.229-.552z" fill="#922d3e"/></g></g><g data-name="Group 17054"><g data-name="Group 17053"><path data-name="Path 18261" d="M39.506 38.487l-4.257-1.75v-3.5a.781.781 0 00-1.562 0v2.862l-2.187-.9v-8.3a.781.781 0 00-1.562 0v7.656l-2.187-.9v-8.271h5.936v1.641a.781.781 0 001.562 0v-8.204l4.475-7.9A2.135 2.135 0 0040 9.875a2.13 2.13 0 00-3.818-1.3l-1.241 1.53a.779.779 0 00.006-.091v-.351a4.214 4.214 0 00-5.172-4.107l-2-1.919 2.3-2.3A.781.781 0 0029.53 0h-6.957a.781.781 0 00-.781.781v1.567h-1.787a.781.781 0 00-.781.781v10.74a2.277 2.277 0 00-.737-.122h-5.931a4.2 4.2 0 00.944-2.656v-.941-.068-.419a4.218 4.218 0 10-8.435 0V10.113L3.819 8.575a2.1 2.1 0 00-2.368-.719A2.1 2.1 0 000 9.875a2.135 2.135 0 00.277 1.05l4.475 7.9v17.912L.485 38.486a.781.781 0 10.594 1.445l18.927-7.779 18.907 7.778a.781.781 0 10.594-1.445zM30.729 7.008a2.66 2.66 0 012.621 2.229h-.864a2.988 2.988 0 01-2.3-1.071.781.781 0 00-1.38.5.533.533 0 01-.516.535l-.181.006a2.66 2.66 0 012.62-2.199zm-2.665 3.761l.284-.01a2.09 2.09 0 001.554-.767 4.546 4.546 0 002.584.8h.889v.3a2.656 2.656 0 01-5.311 0v-.322zm3.229 4.54l-.579 1.86-.579-1.86zM27.644 1.562l-1.533 1.533a.781.781 0 00.011 1.115l1.469 1.413h-4.237V1.562zm-6.858 7.816h4.353a.781.781 0 00.781-.781V7.186h1.4a4.194 4.194 0 00-.807 2.477v.364a.784.784 0 00-.011.123v.941a4.2 4.2 0 00.944 2.656h-5.933a2.28 2.28 0 00-.727.119V9.378zm0-5.468h1.005v2.495a.781.781 0 00.781.781h1.785v.63h-3.571zm-11.5 3.1a2.66 2.66 0 012.616 2.2l-.181-.006a.533.533 0 01-.516-.535.781.781 0 00-1.38-.5 2.987 2.987 0 01-2.299 1.068h-.865a2.66 2.66 0 012.621-2.229zm-2.66 3.785h.9a4.547 4.547 0 002.584-.8 2.09 2.09 0 001.554.767l.274.009v.322a2.656 2.656 0 11-5.311 0v-.3zm3.235 4.513l-.579 1.86-.582-1.859zm2.389 18.343l-2.187.9v-7.657a.781.781 0 00-1.562 0v8.3l-2.187.9v-10.71h5.936v8.267zm0-15.3v5.467H6.313v-5.203a.781.781 0 00-.1-.385l-4.576-8.075a.569.569 0 01-.074-.28.552.552 0 01.387-.538.552.552 0 01.634.195l.015.019 4.342 5.353 1.6 5.125a.781.781 0 001.492 0l1.467-4.72h6.991a.727.727 0 01.1 1.446l-5.675.827a.781.781 0 00-.667.773zm13.939 6.253v8.4L20.3 30.586a.781.781 0 00-.594 0l-5.9 2.423v-8.4-5.583l5.006-.73a2.262 2.262 0 00.407-.1v6.869a.781.781 0 101.562 0v-6.86a2.254 2.254 0 00.4.1l5.006.73v5.573s.002-.002.002 0zm.894-7.026l-5.675-.827a.727.727 0 01.1-1.446H28.5l1.469 4.719a.781.781 0 001.492 0l1.593-5.115L37.4 9.55l.015-.019a.568.568 0 011.021.344.569.569 0 01-.074.28l-4.576 8.075a.782.782 0 00-.1.385v5.207h-5.935v-5.467a.781.781 0 00-.668-.773z" fill="#922d3e"/></g></g><g data-name="Group 17056"><g data-name="Group 17055"><path data-name="Path 18262" d="M20.554 27.719a.781.781 0 10.229.552.787.787 0 00-.229-.552z" fill="#922d3e"/></g></g></svg>