<svg xmlns="http://www.w3.org/2000/svg" width="16" height="15.488"><g data-name="Group 17058" fill="#922d3e"><path data-name="Path 18267" d="M14.419 9.767l-2.71-1.249a.313.313 0 00-.352.063L10.088 9.85l-1.877 1.877-4.465-4.465 1.877-1.877 1.269-1.269a.313.313 0 00.063-.352l-1.249-2.71A1.485 1.485 0 003.795.298a5.326 5.326 0 00-1.926 1.355 6.879 6.879 0 00-1.857 4.44 8.394 8.394 0 001.709 5.512.313.313 0 10.5-.371A7.776 7.776 0 01.636 6.129a6.354 6.354 0 011.472-3.816L4.96 5.165 3.083 7.041a.313.313 0 000 .442L7.99 12.39a.312.312 0 00.442 0l1.877-1.877 2.857 2.852a6.376 6.376 0 01-3.885 1.489 7.773 7.773 0 01-5.19-1.713.313.313 0 00-.382.495 8.438 8.438 0 005.219 1.853c.133 0 .261 0 .383-.009a6.908 6.908 0 004.514-1.875 5.354 5.354 0 001.349-1.928 1.485 1.485 0 00-.756-1.911zM4.031.877a.861.861 0 011.108.438L6.3 3.828l-.895.895-2.867-2.864A4.837 4.837 0 014.031.877zM14.6 11.442a4.873 4.873 0 01-.976 1.492l-2.869-2.864.894-.894 2.512 1.158a.861.861 0 01.439 1.108z"/><path data-name="Path 18268" d="M3.157 12.35a.312.312 0 10-.109.375.315.315 0 00.109-.375z"/><path data-name="Path 18269" d="M9.401 3.489a3.063 3.063 0 013.061 2.973.312.312 0 00.312.3h.009a.313.313 0 00.3-.321 3.688 3.688 0 00-3.686-3.58.313.313 0 000 .625z"/><path data-name="Path 18270" d="M13.927 2.077A7.046 7.046 0 008.913 0a.313.313 0 000 .625A6.466 6.466 0 0115.376 6.9a.312.312 0 00.312.3h.009a.313.313 0 00.3-.322 7.062 7.062 0 00-2.07-4.801z"/></g></svg>