<svg xmlns="http://www.w3.org/2000/svg" width="24" height="24"><g data-name="whatsapp (1)" fill="#4caf50"><path data-name="Path 18271" d="M9.706 21.842a.47.47 0 11.461-.379.475.475 0 01-.461.379zm0 0"/><path data-name="Path 18272" d="M14.911 17.887c-1.16 0-3.2-.479-5.765-3.047-2.524-2.525-3.243-4.1-2.955-6.48a3.653 3.653 0 01.224-.9 3.606 3.606 0 01.509-.9.458.458 0 01.035-.04l.274-.279a1.794 1.794 0 011.281-.539h.007a1.8 1.8 0 011.278.529l1.03 1.03a1.809 1.809 0 010 2.556l-.068.068-.01.01-.4.374a7.619 7.619 0 003.377 3.369l.028.015.454-.454a1.81 1.81 0 012.556 0l.99.99a1.807 1.807 0 01-.011 2.567l-.279.274a.47.47 0 01-.039.034 3.57 3.57 0 01-.9.511 3.847 3.847 0 01-.911.246h-.01a3.607 3.607 0 01-.7.065zm.706-.066zM7.294 7.794a2.727 2.727 0 00-.168.67c-.22 1.823.125 3.142 2.686 5.7 2.974 2.973 5.053 2.837 5.62 2.724.025 0 .047-.009.073-.012a2.9 2.9 0 00.69-.19 2.628 2.628 0 00.636-.359l.259-.255a.866.866 0 00.005-1.23l-.99-.991a.867.867 0 00-1.225 0l-.7.7a.471.471 0 01-.558.081l-.07-.037-.126-.068-.144-.08a8.555 8.555 0 01-3.761-3.763l-.074-.134c-.027-.047-.045-.085-.059-.116s-.015-.032-.025-.051a.47.47 0 01.09-.57l.654-.614.063-.063a.866.866 0 000-1.225l-1.03-1.03a.871.871 0 00-.616-.254.861.861 0 00-.614.259l-.255.259a2.665 2.665 0 00-.357.637zm0 0"/><path data-name="Path 18273" d="M12.038 22.118h-.219a.47.47 0 010-.941h.219a9.175 9.175 0 10-7.442-3.749l.538.732a.471.471 0 01.075.4l-.453 1.677 1.776-.591a.47.47 0 01.373.033l.9.488a.47.47 0 11-.45.827l-.717-.39-2.416.8a.47.47 0 01-.6-.57l.627-2.3-.4-.549a10.119 10.119 0 118.2 4.133zm0 0"/><path data-name="Path 18274" d="M12 24.001a12.023 12.023 0 01-5.558-1.362l-4.685 1.262a.471.471 0 01-.58-.56L2.2 18.923A12 12 0 0112 .001a12 12 0 018.485 20.485A11.922 11.922 0 0112 24.001zm-5.5-2.336a.471.471 0 01.225.057 11.064 11.064 0 10-3.642-3.18.47.47 0 01.079.385l-.892 3.858 4.108-1.1a.469.469 0 01.122-.016zm0 0"/></g></svg>